<?xml version="1.0" encoding="UTF-8" standalone="no"?><svg xmlns="http://www.w3.org/2000/svg" xmlns:xlink="http://www.w3.org/1999/xlink" contentStyleType="text/css" height="336px" preserveAspectRatio="none" style="width:326px;height:336px;background:#FFFFFF;" version="1.1" viewBox="0 0 326 336" width="326px" zoomAndPan="magnify"><defs/><g><rect fill="none" height="193.2361" style="stroke:#000000;stroke-width:1.5;" width="310.5" x="10" y="56.0679"/><rect fill="none" height="96.118" style="stroke:#000000;stroke-width:1.5;" width="290.5" x="20" y="82.7739"/><line style="stroke:#181818;stroke-width:0.5;stroke-dasharray:5.0,5.0;" x1="58" x2="58" y1="39.0679" y2="298.01"/><line style="stroke:#181818;stroke-width:0.5;stroke-dasharray:5.0,5.0;" x1="202.5" x2="202.5" y1="39.0679" y2="298.01"/><line style="stroke:#181818;stroke-width:0.5;stroke-dasharray:5.0,5.0;" x1="268.5" x2="268.5" y1="39.0679" y2="298.01"/><rect fill="#E2E2F0" height="33.0679" rx="2.5" ry="2.5" style="stroke:#181818;stroke-width:0.5;" width="57" x="30" y="5"/><text fill="#000000" font-family="sans-serif" font-size="14" lengthAdjust="spacing" textLength="43" x="37" y="26.9659">Parser</text><rect fill="#E2E2F0" height="33.0679" rx="2.5" ry="2.5" style="stroke:#181818;stroke-width:0.5;" width="57" x="30" y="297.01"/><text fill="#000000" font-family="sans-serif" font-size="14" lengthAdjust="spacing" textLength="43" x="37" y="318.976">Parser</text><rect fill="#E2E2F0" height="33.0679" rx="2.5" ry="2.5" style="stroke:#181818;stroke-width:0.5;" width="50" x="177.5" y="5"/><text fill="#000000" font-family="sans-serif" font-size="14" lengthAdjust="spacing" textLength="36" x="184.5" y="26.9659">Lexer</text><rect fill="#E2E2F0" height="33.0679" rx="2.5" ry="2.5" style="stroke:#181818;stroke-width:0.5;" width="50" x="177.5" y="297.01"/><text fill="#000000" font-family="sans-serif" font-size="14" lengthAdjust="spacing" textLength="36" x="184.5" y="318.976">Lexer</text><rect fill="#E2E2F0" height="33.0679" rx="2.5" ry="2.5" style="stroke:#181818;stroke-width:0.5;" width="63" x="237.5" y="5"/><text fill="#000000" font-family="sans-serif" font-size="14" lengthAdjust="spacing" textLength="49" x="244.5" y="26.9659">Builder</text><rect fill="#E2E2F0" height="33.0679" rx="2.5" ry="2.5" style="stroke:#181818;stroke-width:0.5;" width="63" x="237.5" y="297.01"/><text fill="#000000" font-family="sans-serif" font-size="14" lengthAdjust="spacing" textLength="49" x="244.5" y="318.976">Builder</text><path d="M10,56.0679 L83,56.0679 L83,65.7739 L73,75.7739 L10,75.7739 L10,56.0679 " fill="#EEEEEE" style="stroke:#000000;stroke-width:1.5;"/><rect fill="none" height="193.2361" style="stroke:#000000;stroke-width:1.5;" width="310.5" x="10" y="56.0679"/><text fill="#000000" font-family="sans-serif" font-size="13" font-weight="bold" lengthAdjust="spacing" textLength="28" x="25" y="70.9649">loop</text><text fill="#000000" font-family="sans-serif" font-size="11" font-weight="bold" lengthAdjust="spacing" textLength="124" x="98" y="69.8268">[until no more tokens]</text><path d="M20,82.7739 L93,82.7739 L93,92.4799 L83,102.4799 L20,102.4799 L20,82.7739 " fill="#EEEEEE" style="stroke:#000000;stroke-width:1.5;"/><rect fill="none" height="96.118" style="stroke:#000000;stroke-width:1.5;" width="290.5" x="20" y="82.7739"/><text fill="#000000" font-family="sans-serif" font-size="13" font-weight="bold" lengthAdjust="spacing" textLength="28" x="35" y="97.6709">loop</text><text fill="#000000" font-family="sans-serif" font-size="11" font-weight="bold" lengthAdjust="spacing" textLength="159" x="108" y="96.5328">[until reduction not possible]</text><line style="stroke:#181818;stroke-width:1.0;" x1="58.5" x2="100.5" y1="126.186" y2="126.186"/><line style="stroke:#181818;stroke-width:1.0;" x1="100.5" x2="100.5" y1="126.186" y2="139.186"/><line style="stroke:#181818;stroke-width:1.0;" x1="59.5" x2="100.5" y1="139.186" y2="139.186"/><polygon fill="#181818" points="69.5,135.186,59.5,139.186,69.5,143.186,65.5,139.186" style="stroke:#181818;stroke-width:1.0;"/><text fill="#000000" font-family="sans-serif" font-size="13" lengthAdjust="spacing" textLength="44" x="65.5" y="120.377">Reduce</text><polygon fill="#181818" points="257,166.892,267,170.892,257,174.892,261,170.892" style="stroke:#181818;stroke-width:1.0;"/><line style="stroke:#181818;stroke-width:1.0;" x1="58.5" x2="263" y1="170.892" y2="170.892"/><text fill="#000000" font-family="sans-serif" font-size="13" lengthAdjust="spacing" textLength="134" x="65.5" y="165.083">Execute Reduce action</text><polygon fill="#181818" points="190.5,205.598,200.5,209.598,190.5,213.598,194.5,209.598" style="stroke:#181818;stroke-width:1.0;"/><line style="stroke:#181818;stroke-width:1.0;" x1="58.5" x2="196.5" y1="209.598" y2="209.598"/><text fill="#000000" font-family="sans-serif" font-size="13" lengthAdjust="spacing" textLength="120" x="65.5" y="203.789">Shift/get next token</text><polygon fill="#181818" points="257,237.304,267,241.304,257,245.304,261,241.304" style="stroke:#181818;stroke-width:1.0;"/><line style="stroke:#181818;stroke-width:1.0;" x1="58.5" x2="263" y1="241.304" y2="241.304"/><text fill="#000000" font-family="sans-serif" font-size="13" lengthAdjust="spacing" textLength="117" x="65.5" y="235.495">Execute Shift action</text><polygon fill="#181818" points="257,276.01,267,280.01,257,284.01,261,280.01" style="stroke:#181818;stroke-width:1.0;"/><line style="stroke:#181818;stroke-width:1.0;" x1="58.5" x2="263" y1="280.01" y2="280.01"/><text fill="#000000" font-family="sans-serif" font-size="13" lengthAdjust="spacing" textLength="105" x="65.5" y="274.201">Get build product</text></g></svg>