<svg xmlns="http://www.w3.org/2000/svg" xmlns:xlink="http://www.w3.org/1999/xlink" contentStyleType="text/css" height="312px" preserveAspectRatio="none" style="width:332px;height:312px;background:#FFFFFF;" version="1.1" viewBox="0 0 332 312" width="332px" zoomAndPan="magnify"><defs/><g><rect fill="none" height="177.7969" style="stroke:#000000;stroke-width:1.5;" width="316.5" x="10" y="53.2969"/><rect fill="none" height="88.3984" style="stroke:#000000;stroke-width:1.5;" width="296.5" x="20" y="77.4297"/><line style="stroke:#181818;stroke-width:0.5;stroke-dasharray:5.0,5.0;" x1="59" x2="59" y1="36.2969" y2="277.2266"/><line style="stroke:#181818;stroke-width:0.5;stroke-dasharray:5.0,5.0;" x1="208.5" x2="208.5" y1="36.2969" y2="277.2266"/><line style="stroke:#181818;stroke-width:0.5;stroke-dasharray:5.0,5.0;" x1="275.5" x2="275.5" y1="36.2969" y2="277.2266"/><rect fill="#E2E2F0" height="30.2969" rx="2.5" ry="2.5" style="stroke:#181818;stroke-width:0.5;" width="58" x="30" y="5"/><text fill="#000000" font-family="sans-serif" font-size="14" lengthAdjust="spacing" textLength="44" x="37" y="24.9951">Parser</text><rect fill="#E2E2F0" height="30.2969" rx="2.5" ry="2.5" style="stroke:#181818;stroke-width:0.5;" width="58" x="30" y="276.2266"/><text fill="#000000" font-family="sans-serif" font-size="14" lengthAdjust="spacing" textLength="44" x="37" y="296.2217">Parser</text><rect fill="#E2E2F0" height="30.2969" rx="2.5" ry="2.5" style="stroke:#181818;stroke-width:0.5;" width="51" x="183.5" y="5"/><text fill="#000000" font-family="sans-serif" font-size="14" lengthAdjust="spacing" textLength="37" x="190.5" y="24.9951">Lexer</text><rect fill="#E2E2F0" height="30.2969" rx="2.5" ry="2.5" style="stroke:#181818;stroke-width:0.5;" width="51" x="183.5" y="276.2266"/><text fill="#000000" font-family="sans-serif" font-size="14" lengthAdjust="spacing" textLength="37" x="190.5" y="296.2217">Lexer</text><rect fill="#E2E2F0" height="30.2969" rx="2.5" ry="2.5" style="stroke:#181818;stroke-width:0.5;" width="62" x="244.5" y="5"/><text fill="#000000" font-family="sans-serif" font-size="14" lengthAdjust="spacing" textLength="48" x="251.5" y="24.9951">Builder</text><rect fill="#E2E2F0" height="30.2969" rx="2.5" ry="2.5" style="stroke:#181818;stroke-width:0.5;" width="62" x="244.5" y="276.2266"/><text fill="#000000" font-family="sans-serif" font-size="14" lengthAdjust="spacing" textLength="48" x="251.5" y="296.2217">Builder</text><path d="M10,53.2969 L83.625,53.2969 L83.625,60.4297 L73.625,70.4297 L10,70.4297 L10,53.2969 " fill="#EEEEEE" style="stroke:#000000;stroke-width:1.5;"/><rect fill="none" height="177.7969" style="stroke:#000000;stroke-width:1.5;" width="316.5" x="10" y="53.2969"/><text fill="#000000" font-family="sans-serif" font-size="13" font-weight="bold" lengthAdjust="spacing" textLength="28.625" x="25" y="66.3638">loop</text><text fill="#000000" font-family="sans-serif" font-size="11" font-weight="bold" lengthAdjust="spacing" textLength="132.5313" x="98.625" y="65.5073">[until no more tokens]</text><path d="M20,77.4297 L93.625,77.4297 L93.625,84.5625 L83.625,94.5625 L20,94.5625 L20,77.4297 " fill="#EEEEEE" style="stroke:#000000;stroke-width:1.5;"/><rect fill="none" height="88.3984" style="stroke:#000000;stroke-width:1.5;" width="296.5" x="20" y="77.4297"/><text fill="#000000" font-family="sans-serif" font-size="13" font-weight="bold" lengthAdjust="spacing" textLength="28.625" x="35" y="90.4966">loop</text><text fill="#000000" font-family="sans-serif" font-size="11" font-weight="bold" lengthAdjust="spacing" textLength="172.2813" x="108.625" y="89.6401">[until reduction not possible]</text><line style="stroke:#181818;stroke-width:1.0;" x1="59" x2="101" y1="115.6953" y2="115.6953"/><line style="stroke:#181818;stroke-width:1.0;" x1="101" x2="101" y1="115.6953" y2="128.6953"/><line style="stroke:#181818;stroke-width:1.0;" x1="60" x2="101" y1="128.6953" y2="128.6953"/><polygon fill="#181818" points="70,124.6953,60,128.6953,70,132.6953,66,128.6953" style="stroke:#181818;stroke-width:1.0;"/><text fill="#000000" font-family="sans-serif" font-size="13" lengthAdjust="spacing" textLength="47" x="66" y="110.6294">Reduce</text><polygon fill="#181818" points="263.5,153.8281,273.5,157.8281,263.5,161.8281,267.5,157.8281" style="stroke:#181818;stroke-width:1.0;"/><line style="stroke:#181818;stroke-width:1.0;" x1="59" x2="269.5" y1="157.8281" y2="157.8281"/><text fill="#000000" font-family="sans-serif" font-size="13" lengthAdjust="spacing" textLength="145" x="66" y="152.7622">Execute Reduce action</text><polygon fill="#181818" points="197,189.9609,207,193.9609,197,197.9609,201,193.9609" style="stroke:#181818;stroke-width:1.0;"/><line style="stroke:#181818;stroke-width:1.0;" x1="59" x2="203" y1="193.9609" y2="193.9609"/><text fill="#000000" font-family="sans-serif" font-size="13" lengthAdjust="spacing" textLength="126" x="66" y="188.895">Shift/get next token</text><polygon fill="#181818" points="263.5,219.0938,273.5,223.0938,263.5,227.0938,267.5,223.0938" style="stroke:#181818;stroke-width:1.0;"/><line style="stroke:#181818;stroke-width:1.0;" x1="59" x2="269.5" y1="223.0938" y2="223.0938"/><text fill="#000000" font-family="sans-serif" font-size="13" lengthAdjust="spacing" textLength="127" x="66" y="218.0278">Execute Shift action</text><polygon fill="#181818" points="263.5,255.2266,273.5,259.2266,263.5,263.2266,267.5,259.2266" style="stroke:#181818;stroke-width:1.0;"/><line style="stroke:#181818;stroke-width:1.0;" x1="59" x2="269.5" y1="259.2266" y2="259.2266"/><text fill="#000000" font-family="sans-serif" font-size="13" lengthAdjust="spacing" textLength="110" x="66" y="254.1606">Get build product</text></g></svg>